<svg width="46" height="37" viewBox="0 0 46 37" fill="none" xmlns="http://www.w3.org/2000/svg">
<path d="M35.32 36.376C32.632 36.376 30.296 35.416 28.312 33.496C26.392 31.576 25.432 29.08 25.432 26.008C25.432 23.96 25.976 21.592 27.064 18.904C28.152 16.152 29.976 13.24 32.536 10.168C35.096 7.096 38.552 4.024 42.904 0.951998L45.208 9.304C43.992 10.904 42.84 12.536 41.752 14.2C40.728 15.8 39.928 17.336 39.352 18.808L44.92 27.16C44.92 28.568 44.504 30.008 43.672 31.48C42.904 32.888 41.816 34.072 40.408 35.032C39 35.928 37.304 36.376 35.32 36.376ZM10.168 36.376C7.48 36.376 5.144 35.416 3.16 33.496C1.24 31.576 0.28 29.08 0.28 26.008C0.28 23.96 0.824 21.592 1.912 18.904C3 16.152 4.824 13.24 7.384 10.168C9.944 7.096 13.4 4.024 17.752 0.951998L20.056 9.304C18.84 10.904 17.688 12.536 16.6 14.2C15.576 15.8 14.776 17.336 14.2 18.808L19.768 27.16C19.768 28.568 19.352 30.008 18.52 31.48C17.752 32.888 16.664 34.072 15.256 35.032C13.848 35.928 12.152 36.376 10.168 36.376Z" fill="#FFA600"/>
</svg>
