<svg width="18" height="19" viewBox="0 0 18 19" fill="none" xmlns="http://www.w3.org/2000/svg">
<path d="M10.0215 9.63036L17.7667 1.8831C17.9033 1.74588 17.98 1.56014 17.9798 1.36657C17.9797 1.17299 17.9028 0.987351 17.766 0.850315C17.4921 0.578023 17.0098 0.576648 16.7332 0.85169L8.99001 8.59895L1.2441 0.849627C0.968857 0.578023 0.486501 0.579398 0.212638 0.851002C0.144663 0.918658 0.090852 0.999166 0.0543465 1.08783C0.0178409 1.17649 -0.00062832 1.27153 1.63107e-05 1.3674C1.63107e-05 1.56268 0.075707 1.74558 0.212638 1.88104L7.95786 9.62968L0.213326 17.379C0.0766603 17.5164 0.000125747 17.7024 0.000512742 17.8962C0.000899736 18.0899 0.0781769 18.2756 0.215391 18.4125C0.348194 18.5438 0.536044 18.6194 0.730087 18.6194H0.734216C0.928948 18.6188 1.1168 18.5424 1.24685 18.4097L8.99001 10.6625L16.7359 18.4118C16.8729 18.5479 17.0559 18.6236 17.2499 18.6236C17.3459 18.6238 17.4409 18.6052 17.5296 18.5686C17.6183 18.532 17.6989 18.4783 17.7668 18.4105C17.8346 18.3427 17.8884 18.2622 17.925 18.1735C17.9616 18.0849 17.9803 17.9899 17.98 17.894C17.98 17.6994 17.9043 17.5158 17.7667 17.3804L10.0215 9.63036Z" fill="#C4C4C4"/>
</svg>
